HIERARCHY
ROOT Hips
{
  OFFSET 6.94559 97.9826 -5.97226
  CHANNELS 6 Xposition Yposition Zposition Zrotation Xrotation Yrotation
  JOINT Spine
  {
    OFFSET 0 7.43174 -5.62489
    CHANNELS 3 Zrotation Xrotation Yrotation
    JOINT Spine1
    {
      OFFSET -1.68772e-005 12.1899 5.09266
      CHANNELS 3 Zrotation Xrotation Yrotation
      JOINT Spine2
      {
        OFFSET 0 11.8846 -0.721684
        CHANNELS 3 Zrotation Xrotation Yrotation
        JOINT Spine3
        {
          OFFSET 1.78224e-005 12.2339 -4.61207
          CHANNELS 3 Zrotation Xrotation Yrotation
          JOINT Neck
          {
            OFFSET 0 10.4098 4.52731
            CHANNELS 3 Zrotation Xrotation Yrotation
            JOINT Head
            {
              OFFSET -1.26215e-005 11.0733 1.65432
              CHANNELS 3 Zrotation Xrotation Yrotation
              JOINT Head_End
              {
                OFFSET -0.000138983 15.8595 1.74931
                CHANNELS 3 Zrotation Xrotation Yrotation
                End Site
                {
                  OFFSET 1 0 0
                }
              }
              JOINT LeftEye
              {
                OFFSET 3.01047 5.50179 8.17526
                CHANNELS 3 Zrotation Xrotation Yrotation
                End Site
                {
                  OFFSET 1 0 0
                }
              }
              JOINT RightEye
              {
                OFFSET -3.07669 5.50186 8.17485
                CHANNELS 3 Zrotation Xrotation Yrotation
                End Site
                {
                  OFFSET 1 0 0
                }
              }
            }
          }
          JOINT LeftShoulder
          {
            OFFSET 7 5.93676 2.0674
            CHANNELS 3 Zrotation Xrotation Yrotation
            JOINT LeftArm
            {
              OFFSET 10.7073 0 -1.10732
              CHANNELS 3 Zrotation Xrotation Yrotation
              JOINT LeftForeArm
              {
                OFFSET 26.8053 0 0
                CHANNELS 3 Zrotation Xrotation Yrotation
                JOINT LeftHand
                {
                  OFFSET 23.1506 0 0
                  CHANNELS 3 Zrotation Xrotation Yrotation
                  JOINT LeftPinky1
                  {
                    OFFSET 7.55349 0.487965 -3.33475
                    CHANNELS 3 Zrotation Xrotation Yrotation
                    JOINT LeftPinky2
                    {
                      OFFSET 2.95377 -0.000325252 -0.177727
                      CHANNELS 3 Zrotation Xrotation Yrotation
                      JOINT LeftPinky3
                      {
                        OFFSET 1.64069 -0.000185286 -0.0962795
                        CHANNELS 3 Zrotation Xrotation Yrotation
                        End Site
                        {
                          OFFSET 2.19252 -0.000258531 -0.122938
                        }
                      }
                    }
                  }
                  JOINT LeftRing1
                  {
                    OFFSET 8.26197 0.365599 -1.81261
                    CHANNELS 3 Zrotation Xrotation Yrotation
                    JOINT LeftRing2
                    {
                      OFFSET 4.14475 -0.000270769 -0.0600348
                      CHANNELS 3 Zrotation Xrotation Yrotation
                      JOINT LeftRing3
                      {
                        OFFSET 2.25621 -0.00018043 -0.0228782
                        CHANNELS 3 Zrotation Xrotation Yrotation
                        End Site
                        {
                          OFFSET 2.34286 -0.00018904 -0.0264023
                        }
                      }
                    }
                  }
                  JOINT LeftMiddle1
                  {
                    OFFSET 8.96265 0.482148 -0.0599234
                    CHANNELS 3 Zrotation Xrotation Yrotation
                    JOINT LeftMiddle2
                    {
                      OFFSET 4.16844 -0.000243795 -0.125986
                      CHANNELS 3 Zrotation Xrotation Yrotation
                      JOINT LeftMiddle3
                      {
                        OFFSET 2.83092 -0.000238626 -0.0864111
                        CHANNELS 3 Zrotation Xrotation Yrotation
                        End Site
                        {
                          OFFSET 2.6988 -0.000224304 -0.0823584
                        }
                      }
                    }
                  }
                  JOINT LeftIndex1
                  {
                    OFFSET 8.87518 0.379009 1.77547
                    CHANNELS 3 Zrotation Xrotation Yrotation
                    JOINT LeftIndex2
                    {
                      OFFSET 3.48836 0 0
                      CHANNELS 3 Zrotation Xrotation Yrotation
                      JOINT LeftIndex3
                      {
                        OFFSET 2.29971 0 0
                        CHANNELS 3 Zrotation Xrotation Yrotation
                        End Site
                        {
                          OFFSET 2.40047 0 0
                        }
                      }
                    }
                  }
                  JOINT LeftThumb1
                  {
                    OFFSET 3.98621 -0.769857 4.13297
                    CHANNELS 3 Zrotation Xrotation Yrotation
                    JOINT LeftThumb2
                    {
                      OFFSET -0.00942664 0.0268727 2.02569
                      CHANNELS 3 Zrotation Xrotation Yrotation
                      JOINT LeftThumb3
                      {
                        OFFSET 0.0839638 0.0371964 2.25283
                        CHANNELS 3 Zrotation Xrotation Yrotation
                        End Site
                        {
                          OFFSET 0.037227 -0.0286126 1.98426
                        }
                      }
                    }
                  }
                }
              }
            }
          }
          JOINT RightShoulder
          {
            OFFSET -7 5.93676 2.0673
            CHANNELS 3 Zrotation Xrotation Yrotation
            JOINT RightArm
            {
              OFFSET -10.7073 0 -0.56284
              CHANNELS 3 Zrotation Xrotation Yrotation
              JOINT RightForeArm
              {
                OFFSET -27.6421 -0.00113387 0
                CHANNELS 3 Zrotation Xrotation Yrotation
                JOINT RightHand
                {
                  OFFSET -23.8318 -0.000977571 0
                  CHANNELS 3 Zrotation Xrotation Yrotation
                  JOINT RightThumb1
                  {
                    OFFSET -4.04156 -0.769544 4.05603
                    CHANNELS 3 Zrotation Xrotation Yrotation
                    JOINT RightThumb2
                    {
                      OFFSET 0 0 2.02589
                      CHANNELS 3 Zrotation Xrotation Yrotation
                      JOINT RightThumb3
                      {
                        OFFSET 0 0 2.2547
                        CHANNELS 3 Zrotation Xrotation Yrotation
                        End Site
                        {
                          OFFSET 0 0 1.98481
                        }
                      }
                    }
                  }
                  JOINT RightIndex1
                  {
                    OFFSET -8.9246 0.379713 1.68648
                    CHANNELS 3 Zrotation Xrotation Yrotation
                    JOINT RightIndex2
                    {
                      OFFSET -3.49335 0 0
                      CHANNELS 3 Zrotation Xrotation Yrotation
                      JOINT RightIndex3
                      {
                        OFFSET -2.30259 0 0
                        CHANNELS 3 Zrotation Xrotation Yrotation
                        End Site
                        {
                          OFFSET -2.40484 0.0582823 -0.0159417
                        }
                      }
                    }
                  }
                  JOINT RightMiddle1
                  {
                    OFFSET -9.00754 0.48286 -0.149125
                    CHANNELS 3 Zrotation Xrotation Yrotation
                    JOINT RightMiddle2
                    {
                      OFFSET -4.17035 3.30449e-005 0.000505943
                      CHANNELS 3 Zrotation Xrotation Yrotation
                      JOINT RightMiddle3
                      {
                        OFFSET -2.83121 -5.05999e-005 -0.000505859
                        CHANNELS 3 Zrotation Xrotation Yrotation
                        End Site
                        {
                          OFFSET -2.69907 -4.50544e-005 -0.000462431
                        }
                      }
                    }
                  }
                  JOINT RightRing1
                  {
                    OFFSET -8.30254 0.366258 -1.90007
                    CHANNELS 3 Zrotation Xrotation Yrotation
                    JOINT RightRing2
                    {
                      OFFSET -4.14509 0 0
                      CHANNELS 3 Zrotation Xrotation Yrotation
                      JOINT RightRing3
                      {
                        OFFSET -2.2555 0 0
                        CHANNELS 3 Zrotation Xrotation Yrotation
                        End Site
                        {
                          OFFSET -2.34215 -2.72542e-005 -0.0077418
                        }
                      }
                    }
                  }
                  JOINT RightPinky1
                  {
                    OFFSET -7.5903 0.488569 -3.42046
                    CHANNELS 3 Zrotation Xrotation Yrotation
                    JOINT RightPinky2
                    {
                      OFFSET -2.95912 0 8.02425e-005
                      CHANNELS 3 Zrotation Xrotation Yrotation
                      JOINT RightPinky3
                      {
                        OFFSET -1.64292 0 0
                        CHANNELS 3 Zrotation Xrotation Yrotation
                        End Site
                        {
                          OFFSET -2.19515 -1.70998e-005 0.00902525
                        }
                      }
                    }
                  }
                }
              }
            }
          }
        }
      }
    }
  }
  JOINT LeftUpLeg
  {
    OFFSET 8.91 -6.27 -2.145
    CHANNELS 3 Zrotation Xrotation Yrotation
    JOINT LeftLeg
    {
      OFFSET 0 -44.8786 0
      CHANNELS 3 Zrotation Xrotation Yrotation
      JOINT LeftFoot
      {
        OFFSET 0 -40.701 0
        CHANNELS 3 Zrotation Xrotation Yrotation
        JOINT LeftToeBase
        {
          OFFSET 0 -7.70852 13.0052
          CHANNELS 3 Zrotation Xrotation Yrotation
          End Site
          {
            OFFSET 0 0 5.96686
          }
        }
      }
    }
  }
  JOINT RightUpLeg
  {
    OFFSET -8.91 -6.27 -2.145
    CHANNELS 3 Zrotation Xrotation Yrotation
    JOINT RightLeg
    {
      OFFSET 0 -44.8786 0
      CHANNELS 3 Zrotation Xrotation Yrotation
      JOINT RightFoot
      {
        OFFSET 0 -40.701 0
        CHANNELS 3 Zrotation Xrotation Yrotation
        JOINT RightToeBase
        {
          OFFSET 5.84395e-005 -7.70852 13.0052
          CHANNELS 3 Zrotation Xrotation Yrotation
          End Site
          {
            OFFSET 0 0.000942417 5.96686
          }
        }
      }
    }
  }
}
MOTION
Frames:	7
Frame Time:	0.0416667
7.88345 96.4008 -93.1524 -2.22617 9.17526e-005 -90.2031 -3.29396 -0.0981257 -0.0291626 0.742209 0.348278 -1.50727 0.748201 0.342842 -1.50564 0.754528 0.337593 -1.50386 0.000648818 -2.11507e-013 0.00390578 3.37723 -15.9178 8.97643 -0 0 0 -0.000672778 0 -0.00384251 -0.000672778 0 -0.00384251 -9.39624 1.83871 -4.78182 120.383 78.7115 173.755 -156.496 -2.65629 169.771 129.283 82.0214 -132.607 0.00110607 -9.18323e-005 -2.71416 -0 0 0 -0 0 0 0.000341683 -2.84859e-005 -0.223324 -0 0 0 -0 0 0 0.000337138 -2.81019e-005 -0.60411 -0 0 0 -0 0 0 -0.125539 -0.00437486 -0.350696 -0 0 0 -0 0 0 -0 0 0 -0 0 0 -0 0 0 14.9666 2.05369 -2.69358 67.1398 21.7527 -13.8028 -11.3957 -2.84977 19.2782 3.43482 6.88913 3.18645 -0.0150869 -0.759984 0.125083 -0.00465919 -0.18536 -2.4008 -0.0297188 1.77127 1.05974 0.711024 -0.00512048 -0.431681 3.87261e-011 0 -0 4.98065e-012 0 -0 -0.00107338 0.000256216 -1.1118 6.34755e-011 0 -0 4.98065e-012 0 -0 -0.00093116 0.000179988 0.500065 1.16681e-010 0 -0 4.98065e-012 0 -0 0.000652006 7.14466e-005 -0.393712 4.52376e-011 0 -0 4.98064e-012 0 -0 -0.666501 2.30538 -7.9577 -16.8104 47.8302 7.33867 4.88448 4.67084 -16.7483 0.160298 -2.0554 0.273499 6.71795 -5.44006 4.97608 -0.394568 2.22018 1.12255 2.10344 2.38706 3.85973 0.136891 1.84944 -0.0464841 
4.63858 97.1159 -93.2975 -2.07779 -0.675896 -87.6411 -4.94033 -0.143559 0.469504 0.802647 0.445139 -1.22254 0.808584 0.438363 -1.2214 0.81486 0.431736 -1.22005 0.000648818 -2.11507e-013 0.00390578 2.98131 -16.8757 6.93349 -0 0 0 -0.000672778 0 -0.00384251 -0.000672778 0 -0.00384251 -10.3513 1.9668 -4.23159 127.086 78.5303 165.137 -158.219 -2.31752 170.483 136.096 81.1479 -138.233 0.00110607 -9.18323e-005 -2.71416 -0 0 0 -0 0 0 0.000341683 -2.84859e-005 -0.223324 -0 0 0 -0 0 0 0.000337138 -2.81019e-005 -0.60411 -0 0 0 -0 0 0 -0.125539 -0.00437486 -0.350696 -0 0 0 -0 0 0 -0 0 0 -0 0 0 -0 0 0 14.5183 2.15205 -2.07467 65.9836 22.4693 -12.479 -11.7835 -3.02229 19.9584 3.36038 5.72985 5.0549 -0.0150869 -0.759984 0.125083 -0.00465919 -0.18536 -2.4008 -0.0297188 1.77127 1.05974 0.711024 -0.00512048 -0.431681 3.87261e-011 0 -0 4.98065e-012 0 -0 -0.00107338 0.000256216 -1.1118 6.34755e-011 0 -0 4.98065e-012 0 -0 -0.00093116 0.000179988 0.500065 1.16681e-010 0 -0 4.98065e-012 0 -0 0.000652006 7.14466e-005 -0.393712 4.52376e-011 0 -0 4.98064e-012 0 -0 -1.54439 -5.21985 -11.3595 -24.2655 57.1314 12.7694 -3.88041 13.4675 -8.72042 0.0524237 -0.70628 0.094166 5.5902 -2.9836 1.89127 -0.653223 1.37804 1.54258 2.33309 1.00579 4.31309 0.144329 1.95165 -0.0471641 
1.68964 97.5294 -93.3289 -2.12121 -1.70977 -85.9223 -5.72843 0.00436745 0.765473 0.751243 0.69418 -0.723616 0.754156 0.689475 -0.725348 0.75737 0.68477 -0.726938 0.000648818 -2.11507e-013 0.00390578 2.60008 -17.1635 5.72422 -0 0 0 -0.000672778 0 -0.00384251 -0.000672778 0 -0.00384251 -11.4025 1.98559 -3.04534 137.372 77.5352 153.014 -158.046 -2.35078 170.411 140.616 80.6458 -143.181 0.00110607 -9.18323e-005 -2.71416 -0 0 0 -0 0 0 0.000341683 -2.84859e-005 -0.223324 -0 0 0 -0 0 0 0.000337138 -2.81019e-005 -0.60411 -0 0 0 -0 0 0 -0.125539 -0.00437486 -0.350696 -0 0 0 -0 0 0 -0 0 0 -0 0 0 -0 0 0 13.9543 2.21948 -1.45924 64.6875 23.06 -10.7069 -12.5187 -3.36409 21.2551 3.58814 6.06176 5.82976 -0.0150869 -0.759984 0.125083 -0.00465919 -0.18536 -2.4008 -0.0297188 1.77127 1.05974 0.711024 -0.00512048 -0.431681 3.87261e-011 0 -0 4.98065e-012 0 -0 -0.00107338 0.000256216 -1.1118 6.34755e-011 0 -0 4.98065e-012 0 -0 -0.00093116 0.000179988 0.500065 1.16681e-010 0 -0 4.98065e-012 0 -0 0.000652006 7.14466e-005 -0.393712 4.52376e-011 0 -0 4.98064e-012 0 -0 -1.17665 -12.7212 -10.8107 -34.2032 64.554 21.6435 -2.15584 12.2822 -4.75889 -0.0731431 0.979663 -0.128201 4.79747 -0.544781 1.11945 -0.850899 0.676036 1.4505 2.07577 -0.414198 3.59577 0.152031 2.05722 -0.0518712 
-1.01847 97.7297 -93.2263 -2.16603 -1.99082 -84.3495 -5.80296 0.253399 0.837193 0.746618 1.00313 -0.277638 0.747034 1.00141 -0.282717 0.747776 0.999583 -0.287751 0.000648818 -2.11507e-013 0.00390578 1.75834 -17.1882 5.55593 -0 0 0 -0.000672778 0 -0.00384251 -0.000672778 0 -0.00384251 -12.7076 1.92916 -1.47622 147.562 75.332 141.573 -156.549 -2.64548 169.793 143.078 82.5339 -146.552 0.00110607 -9.18323e-005 -2.71416 -0 0 0 -0 0 0 0.000341683 -2.84859e-005 -0.223324 -0 0 0 -0 0 0 0.000337138 -2.81019e-005 -0.60411 -0 0 0 -0 0 0 -0.125539 -0.00437486 -0.350696 -0 0 0 -0 0 0 -0 0 0 -0 0 0 -0 0 0 13.034 2.40772 -0.0211609 62.9155 24.7957 -8.5933 -12.9237 -3.56103 21.9735 2.80643 3.66463 6.79657 -0.0150869 -0.759984 0.125083 -0.00465919 -0.18536 -2.4008 -0.0297188 1.77127 1.05974 0.711024 -0.00512048 -0.431681 3.87261e-011 0 -0 4.98065e-012 0 -0 -0.00107338 0.000256216 -1.1118 6.34755e-011 0 -0 4.98065e-012 0 -0 -0.00093116 0.000179988 0.500065 1.16681e-010 0 -0 4.98065e-012 0 -0 0.000652006 7.14466e-005 -0.393712 4.52376e-011 0 -0 4.98064e-012 0 -0 -1.65893 -19.5938 -12.4507 -43.9965 68.8783 30.8401 1.18211 6.36623 -2.20259 -0.0505941 0.680541 -0.0894976 4.64473 1.71678 -0.0434028 -1.07172 -0.0475398 1.0703 1.51539 -1.59559 3.93461 0.142209 1.92262 -0.0483211 
-3.72656 97.9243 -92.9994 -2.33213 -2.91853 -83.5323 -6.04152 0.506717 0.963625 0.58689 1.31128 0.278851 0.586017 1.31349 0.270087 0.585588 1.31556 0.261266 0.000648818 -2.11507e-013 0.00390578 1.09253 -17.3772 5.58524 -0 0 0 -0.000672778 0 -0.00384251 -0.000672778 0 -0.00384251 -13.8564 1.77649 0.111665 154.686 72.6458 133.346 -155.54 -2.85298 169.379 144.997 83.2386 -148.828 0.00110607 -9.18323e-005 -2.71416 -0 0 0 -0 0 0 0.000341683 -2.84859e-005 -0.223324 -0 0 0 -0 0 0 0.000337138 -2.81019e-005 -0.60411 -0 0 0 -0 0 0 -0.125539 -0.00437486 -0.350696 -0 0 0 -0 0 0 -0 0 0 -0 0 0 -0 0 0 12.3191 2.44677 0.758193 60.3675 26.5335 -5.87246 -13.4 -3.80079 22.8224 2.83509 3.61176 6.60918 -0.0150869 -0.759984 0.125083 -0.00465919 -0.18536 -2.4008 -0.0297188 1.77127 1.05974 0.711024 -0.00512048 -0.431681 3.87261e-011 0 -0 4.98065e-012 0 -0 -0.00107338 0.000256216 -1.1118 6.34755e-011 0 -0 4.98065e-012 0 -0 -0.00093116 0.000179988 0.500065 1.16681e-010 0 -0 4.98065e-012 0 -0 0.000652006 7.14466e-005 -0.393712 4.52376e-011 0 -0 4.98064e-012 0 -0 -3.46405 -25.4289 -13.9439 -48.7905 70.3573 35.6262 3.1966 4.01517 1.88916 -0.332319 4.63809 -0.593495 3.80498 3.68961 -1.81745 -1.15796 2.90914e-006 0.706187 1.25269 -2.96882 5.35464 0.0922263 1.23539 -0.0304888 
-6.46117 98.083 -92.7281 -2.39195 -3.20882 -82.8395 -5.97246 0.741299 1.01012 0.504372 1.55463 0.767376 0.503897 1.56028 0.756104 0.504011 1.56576 0.744726 0.000648818 -2.11507e-013 0.00390578 0.731149 -17.8076 6.15064 -0 0 0 -0.000672778 0 -0.00384251 -0.000672778 0 -0.00384251 -14.6091 1.56379 1.47057 162.118 70.9056 124.94 -155.765 -2.80591 169.471 148.955 82.9961 -153.017 0.00110607 -9.18323e-005 -2.71416 -0 0 0 -0 0 0 0.000341683 -2.84859e-005 -0.223324 -0 0 0 -0 0 0 0.000337138 -2.81019e-005 -0.60411 -0 0 0 -0 0 0 -0.125539 -0.00437486 -0.350696 -0 0 0 -0 0 0 -0 0 0 -0 0 0 -0 0 0 11.8229 2.44727 1.24911 57.8104 27.2548 -3.01232 -13.9809 -4.10542 23.8635 3.58506 2.63006 5.37539 -0.0150869 -0.759984 0.125083 -0.00465919 -0.18536 -2.4008 -0.0297188 1.77127 1.05974 0.711024 -0.00512048 -0.431681 3.87261e-011 0 -0 4.98065e-012 0 -0 -0.00107338 0.000256216 -1.1118 6.34755e-011 0 -0 4.98065e-012 0 -0 -0.00093116 0.000179988 0.500065 1.16681e-010 0 -0 4.98065e-012 0 -0 0.000652006 7.14466e-005 -0.393712 4.52376e-011 0 -0 4.98064e-012 0 -0 -4.10419 -30.0331 -14.5959 -45.9732 69.5268 33.4576 7.016 3.01981 2.94633 -0.214082 2.91871 -0.376612 3.5776 5.68246 -3.48008 -1.05349 2.96196e-006 0.293104 0.662128 -3.64425 6.71289 0.016175 0.184168 -0.00445066 
-9.27359 98.0122 -92.3542 -2.57397 -3.46237 -81.8469 -5.56874 0.944556 0.950943 0.384345 1.74545 1.07607 0.385508 1.75257 1.06414 0.387352 1.7595 1.05214 0.000648818 -2.11507e-013 0.00390578 0.153455 -18.0394 6.64181 -0 0 0 -0.000672778 0 -0.00384251 -0.000672778 0 -0.00384251 -15.2736 1.51154 2.00517 171.025 69.6271 115.319 -156.954 -2.56407 169.959 145.621 82.5571 -149.406 0.00110607 -9.18323e-005 -2.71416 -0 0 0 -0 0 0 0.000341683 -2.84859e-005 -0.223324 -0 0 0 -0 0 0 0.000337138 -2.81019e-005 -0.60411 -0 0 0 -0 0 0 -0.125539 -0.00437486 -0.350696 -0 0 0 -0 0 0 -0 0 0 -0 0 0 -0 0 0 11.1649 2.42139 1.81683 55.8929 27.2406 -0.659093 -14.2355 -4.24263 24.3224 2.51002 1.50455 6.68111 -0.0150869 -0.759984 0.125083 -0.00465919 -0.18536 -2.4008 -0.0297188 1.77127 1.05974 0.711024 -0.00512048 -0.431681 3.87261e-011 0 -0 4.98065e-012 0 -0 -0.00107338 0.000256216 -1.1118 6.34755e-011 0 -0 4.98065e-012 0 -0 -0.00093116 0.000179988 0.500065 1.16681e-010 0 -0 4.98065e-012 0 -0 0.000652006 7.14466e-005 -0.393712 4.52376e-011 0 -0 4.98064e-012 0 -0 -5.00557 -32.8388 -15.3006 -35.9696 65.4855 24.4997 8.40297 0.378031 3.34957 0.230039 -2.90426 0.38795 3.63376 7.71633 -5.68882 -1.09379 2.21697e-006 -0.0789816 0.65991 -4.66953 7.79552 -0.056663 -0.829125 0.019393 
